# xmcd
#
# Track frame offsets:
#	150
#	14282
#	27297
#	41397
#	53922
#	71322
#	86022
#	99915
#	114027
#	128922
#	144897
#	161922
#
# Disc length: 2288 seconds
#
# Revision: 1
# Processed by: cddbd v1.5PL3 Copyright (c) Steve Scherf et al.
# Submitted via: audiograbber 1.83.01
#
DISCID=8d08ee0c
DTITLE=Buddy Dee and The Ghostriders - Midnight In Lakeland
DYEAR=1900
DGENRE=Country
TTITLE0=As Long As I Had You
TTITLE1=I Can Take It
TTITLE2=Midnight In Lakeland
TTITLE3=New Country Music
TTITLE4=Long Haired Country Boy
TTITLE5=It's Been Nothin' But Bad Luck
TTITLE6=A Fire, A Tent
TTITLE7=When I Get Older
TTITLE8=Don't Walk Away
TTITLE9=Daydreamin'
TTITLE10=Take Me To The Mountains
TTITLE11=All Tied Down
EXTD=
EXTT0=
EXTT1=
EXTT2=
EXTT3=
EXTT4=
EXTT5=
EXTT6=
EXTT7=
EXTT8=
EXTT9=
EXTT10=
EXTT11=
PLAYORDER=
